<svg width="110" height="110" viewBox="0 0 110 110" fill="none" xmlns="http://www.w3.org/2000/svg">
<rect width="110" height="110" fill="white"/>
<path d="M75.0955 52.6696H82.6255C81.9955 51.1996 80.6455 50.3596 78.8455 50.3596C77.0755 50.3596 75.7255 51.1996 75.0955 52.6696ZM78.8455 59.2396C80.3455 59.2396 81.5155 58.6696 82.2355 57.6196H86.1655C85.1755 60.6496 82.5055 62.5396 78.8755 62.5396C74.2255 62.5396 71.1055 59.4196 71.1055 54.7696C71.1055 50.1496 74.2255 47.0596 78.8755 47.0596C83.5255 47.0596 86.6155 50.1496 86.6155 54.7696C86.6155 55.1896 86.5855 55.5796 86.5555 55.9696H74.8255C75.2155 58.0396 76.7155 59.2396 78.8455 59.2396Z" fill="black"/>
<path d="M58.6205 54.7996C58.6205 57.5896 60.2705 59.2396 62.7605 59.2396C64.5905 59.2396 65.9405 58.3696 66.5705 56.8396H70.3205C69.5105 60.3196 66.7205 62.5396 62.7905 62.5396C58.1405 62.5396 55.0205 59.4196 55.0205 54.7696C55.0205 50.1496 58.1405 47.0596 62.7905 47.0596C66.6905 47.0596 69.5105 49.2496 70.2905 52.6696H66.5405C65.9105 51.1996 64.5605 50.3596 62.7605 50.3596C60.2705 50.3596 58.6205 52.0096 58.6205 54.7996Z" fill="black"/>
<path d="M46.7848 47C51.7348 47 53.6848 50.72 53.6848 53.33V62.27H50.0848V53.42C50.0848 51.29 48.5248 50.33 46.7848 50.33C45.0448 50.33 43.4848 51.29 43.4848 53.42V62.27H39.8848V53.33C39.8848 50.72 41.8348 47 46.7848 47Z" fill="black"/>
<path d="M23 54.7696C23 50.1496 26.12 47.0596 30.77 47.0596C35.42 47.0596 38.51 50.1496 38.51 54.7696C38.51 59.4196 35.42 62.5396 30.77 62.5396C26.12 62.5396 23 59.4196 23 54.7696ZM26.6 54.7996C26.6 57.5896 28.25 59.2396 30.74 59.2396C33.26 59.2396 34.91 57.5896 34.91 54.7996C34.91 52.0096 33.26 50.3596 30.74 50.3596C28.25 50.3596 26.6 52.0096 26.6 54.7996Z" fill="black"/>
</svg>
